<svg width="16" height="16" viewBox="0 0 16 16" fill="none" xmlns="http://www.w3.org/2000/svg">
    <g clip-path="url(#clip0_4390_17847)">
        <path fill-rule="evenodd" clip-rule="evenodd"
            d="M2 8C2 7.44772 2.42415 7 2.94737 7H13.0526C13.5758 7 14 7.44772 14 8C14 8.55228 13.5758 9 13.0526 9H2.94737C2.42415 9 2 8.55228 2 8Z"
            fill="#EEF9F9" />
        <path fill-rule="evenodd" clip-rule="evenodd"
            d="M8 2C8.55228 2 9 2.42415 9 2.94737L9 13.0526C9 13.5758 8.55228 14 8 14C7.44771 14 7 13.5758 7 13.0526L7 2.94737C7 2.42415 7.44772 2 8 2Z"
            fill="#EEF9F9" />
    </g>
    <defs>
        <clipPath id="clip0_4390_17847">
            <rect width="16" height="16" fill="white" />
        </clipPath>
    </defs>
</svg>
    